# xmcd
#
# Track frame offsets: 
#        150
#        19824
#        36518
#        56100
#        74759
#        91261
#        108300
#        128697
#        149250
#        165698
#
# Disc length: 2451 seconds
#
# Revision: 0
# Processed by: cddbd v1.5.2PL0 Copyright (c) Steve Scherf et al.
# Submitted via: ExactAudioCopy v0.95a5
#
DISCID=9009910a
DTITLE=忧欢派对&小虎队 - 新年快乐
DYEAR=1989
DGENRE=Pop
TTITLE0=新年快乐
TTITLE1=青苹果乐园
TTITLE2=在雨中走过
TTITLE3=和你走在阳光下
TTITLE4=彩色天空彩色梦
TTITLE5=滴答我的爱
TTITLE6=我要恋爱
TTITLE7=梦中的彼得潘
TTITLE8=你是我幼稚的情人
TTITLE9=偶然
EXTD=
EXTT0=
EXTT1=
EXTT2=
EXTT3=
EXTT4=
EXTT5=
EXTT6=
EXTT7=
EXTT8=
EXTT9=
PLAYORDER=
